<mxfile host="app.diagrams.net" modified="2023-08-27T12:56:02.483Z" agent="Mozilla/5.0 (Windows NT 10.0; Win64; x64) AppleWebKit/537.36 (KHTML, like Gecko) Chrome/116.0.0.0 Safari/537.36" etag="6TuH0Gz7OJhgo6DyArc2" version="21.6.9" type="device">
  <diagram name="Page-1" id="-IGkToAGBUo3LZPsKD9X">
    <mxGraphModel dx="541" dy="283" grid="0" gridSize="10" guides="1" tooltips="1" connect="1" arrows="1" fold="1" page="1" pageScale="1" pageWidth="827" pageHeight="1169" math="0" shadow="0">
      <root>
        <mxCell id="0" />
        <mxCell id="1" parent="0" />
        <mxCell id="b4Jdqjot7AkIIK2aGSFn-128" value="" style="ellipse;shape=cloud;whiteSpace=wrap;html=1;fillColor=#e1d5e7;strokeColor=none;" vertex="1" parent="1">
          <mxGeometry x="508" y="261.5" width="96" height="64" as="geometry" />
        </mxCell>
        <mxCell id="b4Jdqjot7AkIIK2aGSFn-124" value="" style="rounded=1;whiteSpace=wrap;html=1;rotation=236;fillColor=#e1d5e7;strokeColor=none;" vertex="1" parent="1">
          <mxGeometry x="394" y="300.5" width="38.75" height="14" as="geometry" />
        </mxCell>
        <mxCell id="b4Jdqjot7AkIIK2aGSFn-121" value="" style="rounded=1;whiteSpace=wrap;html=1;rotation=328;fillColor=#e1d5e7;strokeColor=none;" vertex="1" parent="1">
          <mxGeometry x="368.22" y="293.23" width="63.85" height="14" as="geometry" />
        </mxCell>
        <mxCell id="b4Jdqjot7AkIIK2aGSFn-120" value="" style="ellipse;whiteSpace=wrap;html=1;aspect=fixed;fillColor=#e1d5e7;strokeColor=none;" vertex="1" parent="1">
          <mxGeometry x="259" y="300.5" width="25" height="25" as="geometry" />
        </mxCell>
        <mxCell id="b4Jdqjot7AkIIK2aGSFn-119" value="" style="ellipse;whiteSpace=wrap;html=1;aspect=fixed;fillColor=#e1d5e7;strokeColor=none;" vertex="1" parent="1">
          <mxGeometry x="223" y="278.5" width="25" height="25" as="geometry" />
        </mxCell>
        <mxCell id="b4Jdqjot7AkIIK2aGSFn-118" value="" style="ellipse;whiteSpace=wrap;html=1;aspect=fixed;fillColor=#e1d5e7;strokeColor=none;" vertex="1" parent="1">
          <mxGeometry x="200.25" y="293" width="32.5" height="32.5" as="geometry" />
        </mxCell>
        <mxCell id="b4Jdqjot7AkIIK2aGSFn-98" value="Input" style="text;html=1;strokeColor=none;fillColor=none;align=center;verticalAlign=middle;whiteSpace=wrap;rounded=0;fontStyle=1" vertex="1" parent="1">
          <mxGeometry x="123" y="211" width="60" height="30" as="geometry" />
        </mxCell>
        <mxCell id="b4Jdqjot7AkIIK2aGSFn-99" value="Points" style="text;html=1;strokeColor=none;fillColor=none;align=center;verticalAlign=middle;whiteSpace=wrap;rounded=0;fontStyle=1" vertex="1" parent="1">
          <mxGeometry x="214" y="163" width="60" height="30" as="geometry" />
        </mxCell>
        <mxCell id="b4Jdqjot7AkIIK2aGSFn-100" value="Lines" style="text;html=1;strokeColor=none;fillColor=none;align=center;verticalAlign=middle;whiteSpace=wrap;rounded=0;fontStyle=1" vertex="1" parent="1">
          <mxGeometry x="370" y="163" width="60" height="30" as="geometry" />
        </mxCell>
        <mxCell id="b4Jdqjot7AkIIK2aGSFn-101" value="Polygons" style="text;html=1;strokeColor=none;fillColor=none;align=center;verticalAlign=middle;whiteSpace=wrap;rounded=0;fontStyle=1" vertex="1" parent="1">
          <mxGeometry x="526" y="163" width="60" height="30" as="geometry" />
        </mxCell>
        <mxCell id="b4Jdqjot7AkIIK2aGSFn-102" value="" style="ellipse;whiteSpace=wrap;html=1;aspect=fixed;fillColor=#dae8fc;strokeColor=#6c8ebf;" vertex="1" parent="1">
          <mxGeometry x="233.5" y="215" width="4" height="4" as="geometry" />
        </mxCell>
        <mxCell id="b4Jdqjot7AkIIK2aGSFn-103" value="" style="ellipse;whiteSpace=wrap;html=1;aspect=fixed;fillColor=#dae8fc;strokeColor=#6c8ebf;" vertex="1" parent="1">
          <mxGeometry x="214.5" y="233" width="4" height="4" as="geometry" />
        </mxCell>
        <mxCell id="b4Jdqjot7AkIIK2aGSFn-105" value="" style="ellipse;whiteSpace=wrap;html=1;aspect=fixed;fillColor=#dae8fc;strokeColor=#6c8ebf;" vertex="1" parent="1">
          <mxGeometry x="269.5" y="237" width="4" height="4" as="geometry" />
        </mxCell>
        <mxCell id="b4Jdqjot7AkIIK2aGSFn-107" value="" style="endArrow=none;html=1;rounded=0;fillColor=#dae8fc;strokeColor=#6c8ebf;" edge="1" parent="1">
          <mxGeometry width="50" height="50" relative="1" as="geometry">
            <mxPoint x="376.5" y="240.5" as="sourcePoint" />
            <mxPoint x="423.5" y="210.5" as="targetPoint" />
          </mxGeometry>
        </mxCell>
        <mxCell id="b4Jdqjot7AkIIK2aGSFn-108" value="" style="endArrow=none;html=1;rounded=0;fillColor=#dae8fc;strokeColor=#6c8ebf;" edge="1" parent="1">
          <mxGeometry width="50" height="50" relative="1" as="geometry">
            <mxPoint x="420" y="241.5" as="sourcePoint" />
            <mxPoint x="406" y="221.5" as="targetPoint" />
          </mxGeometry>
        </mxCell>
        <mxCell id="b4Jdqjot7AkIIK2aGSFn-109" value="" style="ellipse;shape=cloud;whiteSpace=wrap;html=1;fillColor=#dae8fc;strokeColor=#6c8ebf;" vertex="1" parent="1">
          <mxGeometry x="535.75" y="206" width="40.5" height="27" as="geometry" />
        </mxCell>
        <mxCell id="b4Jdqjot7AkIIK2aGSFn-110" value="Input" style="text;html=1;strokeColor=none;fillColor=none;align=center;verticalAlign=middle;whiteSpace=wrap;rounded=0;fontStyle=1" vertex="1" parent="1">
          <mxGeometry x="123" y="285" width="60" height="30" as="geometry" />
        </mxCell>
        <mxCell id="b4Jdqjot7AkIIK2aGSFn-111" value="" style="ellipse;whiteSpace=wrap;html=1;aspect=fixed;fillColor=#dae8fc;strokeColor=#6c8ebf;" vertex="1" parent="1">
          <mxGeometry x="233.5" y="289" width="4" height="4" as="geometry" />
        </mxCell>
        <mxCell id="b4Jdqjot7AkIIK2aGSFn-112" value="" style="ellipse;whiteSpace=wrap;html=1;aspect=fixed;fillColor=#dae8fc;strokeColor=#6c8ebf;" vertex="1" parent="1">
          <mxGeometry x="214.5" y="307" width="4" height="4" as="geometry" />
        </mxCell>
        <mxCell id="b4Jdqjot7AkIIK2aGSFn-113" value="" style="ellipse;whiteSpace=wrap;html=1;aspect=fixed;fillColor=#dae8fc;strokeColor=#6c8ebf;" vertex="1" parent="1">
          <mxGeometry x="269.5" y="311" width="4" height="4" as="geometry" />
        </mxCell>
        <mxCell id="b4Jdqjot7AkIIK2aGSFn-114" value="" style="endArrow=none;html=1;rounded=0;fillColor=#dae8fc;strokeColor=#6c8ebf;" edge="1" parent="1">
          <mxGeometry width="50" height="50" relative="1" as="geometry">
            <mxPoint x="376.5" y="314.5" as="sourcePoint" />
            <mxPoint x="423.5" y="284.5" as="targetPoint" />
          </mxGeometry>
        </mxCell>
        <mxCell id="b4Jdqjot7AkIIK2aGSFn-115" value="" style="endArrow=none;html=1;rounded=0;fillColor=#dae8fc;strokeColor=#6c8ebf;" edge="1" parent="1">
          <mxGeometry width="50" height="50" relative="1" as="geometry">
            <mxPoint x="420" y="315.5" as="sourcePoint" />
            <mxPoint x="406" y="295.5" as="targetPoint" />
          </mxGeometry>
        </mxCell>
        <mxCell id="b4Jdqjot7AkIIK2aGSFn-116" value="" style="ellipse;shape=cloud;whiteSpace=wrap;html=1;fillColor=#dae8fc;strokeColor=#6c8ebf;" vertex="1" parent="1">
          <mxGeometry x="535.75" y="280" width="40.5" height="27" as="geometry" />
        </mxCell>
      </root>
    </mxGraphModel>
  </diagram>
</mxfile>
